<?xml version="1.0" encoding="utf-8"?>
<!-- Generator: Adobe Illustrator 22.1.0, SVG Export Plug-In . SVG Version: 6.00 Build 0)  -->
<svg version="1.1" id="Layer_1" xmlns="http://www.w3.org/2000/svg" xmlns:xlink="http://www.w3.org/1999/xlink" x="0px" y="0px"
	 viewBox="0 0 55.2 38.4" style="enable-background:new 0 0 55.2 38.4;" xml:space="preserve">
<style type="text/css">
	.st0{fill:#FEFEFE;}
	.st1{fill:#C8102E;}
	.st2{fill:#012169;}
	.st3{fill:#DD0000;}
	.st4{fill:#FFCE00;}
</style>
<path class="st0" d="M2.9,38.4h49.5c1.6-0.1,2.9-1.4,2.9-3V3c0-1.7-1.3-3-3-3H3C1.4,0,0,1.4,0,3v32.3C0,37,1.3,38.3,2.9,38.4
	L2.9,38.4z"/>
<polygon class="st1" points="23.7,23 23.7,38.4 27.9,38.4 27.9,23 27.9,15.3 27.9,0 23.7,0 23.7,15.3 0,15.3 0,23 "/>
<path class="st2" d="M21.2,26v12.4H2.9c-1.2-0.1-2.2-0.8-2.7-1.9L21.2,26L21.2,26z"/>
<path class="st2" d="M21.2,12.4V0H3C1.7,0,0.6,0.8,0.2,1.9L21.2,12.4L21.2,12.4z"/>
<polygon class="st2" points="0,12.8 7.7,12.8 0,9 "/>
<polygon class="st2" points="0,25.6 7.7,25.6 0,29.4 "/>
<polygon class="st1" points="19,25.6 14.8,25.6 0,33 0,35.1 19,25.6 "/>
<polygon class="st1" points="10.5,12.8 14.8,12.8 0,5.4 0,7.5 "/>
<path id="black_stripe" d="M27.8,0h24.4c1.6,0,3,1.3,3,3v32.5c0,1.6-1.3,2.9-2.9,2.9H27.8V0z"/>
<path id="red_stripe" class="st3" d="M27.8,12.8h27.3v22.6c0,1.6-1.3,2.9-2.9,2.9H27.8V12.8z"/>
<path id="gold_stripe" class="st4" d="M27.8,25.6h27.3v9.9c0,1.6-1.3,2.9-2.9,2.9H27.8V25.6z"/>
</svg>
